:SAMPLES-PER-SECOND 30
:FRAME-RANGE 1-3535
:FULLY-SPECIFIED
:DEGREES
2431
root  -3.1884 37.7779 53.5884 173.789 -63.7057 -174.396
RightUpLeg  -18.9125 -4.18087 12.1143
RightLeg  18.2633 -18.5521 -2.56384
RightFoot  -3.83079 0.633868 -10.0154
RightToes  1.22775e-009 1.2921e-014 -6.02303e-014
Spine  6.78285 -4.8992 1.56634
Spine1  2.71904 -6.17218 6.48525
HEad  -13.1279 -43.9446 4.56931
LeftShoulder1  1.9951 -1.98941 -30.2776
LeftArm  14.0303 -16.5233 -45.3121
LeftForeArm  13.4495 -4.78276 -16.9853
LeftHand  0.116749 -2.99232 -1.39504
RightShoulder  5.47951 6.34813 48.7427
RightArm  -2.40026 -0.473402 11.7672
RightForeArm  24.0842 -7.05721 15.8682
RightHand  0.452246 4.73842 4.87914
LeftUpLeg  5.44471 21.5496 3.80358
LeftLeg  41.6359 -4.94678 -4.31424
LeftFoot  -4.96799 1.16402 -20.1913
LeftToes  2.52163e-011 5.65494e-011 -1.09494e-012
2432
root  -4.25383 37.5271 53.2701 170.979 -64.0052 -171.088
RightUpLeg  -19.6445 -5.81512 13.6166
RightLeg  23.0029 -17.3114 -4.04573
RightFoot  -7.27074 0.291025 -9.53716
RightToes  1.22775e-009 1.2921e-014 -6.02303e-014
Spine  6.78223 -5.12248 3.71194
Spine1  3.48713 -6.12572 7.21751
HEad  -12.716 -44.5104 5.95943
LeftShoulder1  2.00997 -2.06723 -30.0349
LeftArm  18.2037 -14.7095 -44.997
LeftForeArm  7.39595 -0.378819 -18.9805
LeftHand  0.255067 -2.32465 -3.65873
RightShoulder  5.64692 6.58784 49.0378
RightArm  -0.399691 -0.110833 12.7855
RightForeArm  22.3089 -6.83164 16.1015
RightHand  0.469969 4.7189 5.09269
LeftUpLeg  -1.72589 18.5562 5.87893
LeftLeg  53.6392 -5.6112 -7.67503
LeftFoot  8.13526 3.70312 -21.6413
LeftToes  2.52163e-011 5.65494e-011 -1.09494e-012
2433
root  -5.3071 37.3284 52.9873 168.317 -63.4926 -168.486
RightUpLeg  -19.1296 -5.91335 14.5933
RightLeg  26.5214 -16.9187 -5.22673
RightFoot  -10.1409 0.0211233 -8.51717
RightToes  1.22775e-009 1.2921e-014 -6.02303e-014
Spine  7.27866 -5.14225 6.39496
Spine1  4.17809 -5.50204 6.75483
HEad  -12.3847 -45.402 7.24248
LeftShoulder1  1.99661 -1.96495 -30.4699
LeftArm  25.5704 -12.6895 -43.308
LeftForeArm  1.54058 -2.31973 -19.3988
LeftHand  0.353848 -1.52405 -5.82406
RightShoulder  6.077 7.13918 50.0312
RightArm  2.34203 0.40149 13.6745
RightForeArm  21.9705 -3.65731 16.4383
RightHand  0.467271 5.02241 4.89502
LeftUpLeg  -7.49709 15.7374 7.71026
LeftLeg  62.5584 -5.4727 -10.7599
LeftFoot  14.7016 4.527 -19.8005
LeftToes  2.52163e-011 5.65494e-011 -1.09494e-012
2434
root  -6.49732 37.4408 52.6562 168.819 -61.7851 -169.61
RightUpLeg  -16.7428 -4.84505 14.1944
RightLeg  27.5548 -16.3021 -5.93564
RightFoot  -12.142 -0.133347 -7.35294
RightToes  1.22775e-009 1.2921e-014 -6.02303e-014
Spine  7.72988 -4.7122 7.50647
Spine1  4.37027 -4.48511 5.47142
HEad  -12.2071 -45.8243 8.06039
LeftShoulder1  1.91236 -1.67523 -30.8865
LeftArm  25.1765 -8.59596 -40.6413
LeftForeArm  2.444 -2.41718 -19.3475
LeftHand  0.381771 -1.10408 -6.74691
RightShoulder  6.67874 7.97936 50.9455
RightArm  6.98418 1.30368 14.939
RightForeArm  20.2216 -0.0272178 16.5848
RightHand  0.457366 5.15064 4.71875
LeftUpLeg  -11.8003 15.1047 8.63157
LeftLeg  67.8853 -3.56127 -8.90443
LeftFoot  10.8219 3.18346 -16.4978
LeftToes  2.52163e-011 5.65494e-011 -1.09494e-012
2435
root  -7.72624 37.6556 52.3169 170.859 -59.7713 -172.117
RightUpLeg  -14.1218 -3.74981 12.8859
RightLeg  27.5057 -15.2661 -5.82588
RightFoot  -13.7177 -0.22356 -6.30718
RightToes  1.22775e-009 1.2921e-014 -6.02303e-014
Spine  7.33591 -4.15303 7.72781
Spine1  4.81238 -3.58331 4.33614
HEad  -11.4968 -45.8895 7.94247
LeftShoulder1  1.79731 -1.32476 -31.182
LeftArm  24.4693 -3.01237 -37.8323
LeftForeArm  2.29765 -1.99261 -19.3905
LeftHand  0.374149 -0.996236 -6.73424
RightShoulder  7.29553 8.95097 51.2976
RightArm  13.4242 2.23627 16.6454
RightForeArm  16.3113 4.46535 16.1509
RightHand  0.469333 5.22742 4.81026
LeftUpLeg  -15.6105 14.2432 8.50692
LeftLeg  69.2156 -1.80791 -4.5172
LeftFoot  9.182 2.42229 -13.6385
LeftToes  2.52163e-011 5.65494e-011 -1.09494e-012
2436
root  -8.95751 37.9412 51.9721 173.037 -57.5461 -174.716
RightUpLeg  -11.0772 -3.10565 11.1301
RightLeg  26.2153 -13.623 -4.81608
RightFoot  -14.8055 -0.260368 -5.29931
RightToes  1.22775e-009 1.2921e-014 -6.02303e-014
Spine  7.07815 -3.4649 7.80835
Spine1  4.55894 -2.61793 3.04594
HEad  -10.2255 -45.7594 6.9474
LeftShoulder1  1.69532 -1.02171 -31.4187
LeftArm  24.5999 3.07567 -35.3424
LeftForeArm  1.77166 -1.72156 -19.4294
LeftHand  0.346729 -1.26854 -5.9504
RightShoulder  7.69309 9.61414 51.3542
RightArm  21.6392 2.47259 18.5914
RightForeArm  10.1289 10.1166 14.2728
RightHand  0.479313 5.40285 4.82834
LeftUpLeg  -18.4531 13.5849 8.17157
LeftLeg  67.176 -0.680745 -1.07688
LeftFoot  8.0178 1.67439 -10.0846
LeftToes  2.52163e-011 5.65494e-011 -1.09494e-012
2437
root  -10.1586 38.2402 51.6238 175.292 -54.947 -177.19
RightUpLeg  -8.14608 -2.87058 9.25419
RightLeg  24.2866 -11.2378 -3.63078
RightFoot  -15.5054 -0.274748 -4.67329
RightToes  1.22775e-009 1.2921e-014 -6.02303e-014
Spine  6.87114 -2.59484 7.61995
Spine1  3.88112 -1.5961 1.69679
HEad  -9.38882 -45.5582 6.00161
LeftShoulder1  1.56628 -0.667444 -31.5025
LeftArm  20.7485 9.15924 -33.0084
LeftForeArm  5.27667 -2.82219 -18.7103
LeftHand  0.333655 -1.59313 -5.42318
RightShoulder  7.9105 9.96383 51.4311
RightArm  33.4228 2.44268 20.1214
RightForeArm  -0.197566 16.8934 10.098
RightHand  0.499203 5.47407 5.00412
LeftUpLeg  -20.4781 13.0203 7.69334
LeftLeg  62.1583 0.123693 0.839756
LeftFoot  5.41226 1.11538 -7.79063
LeftToes  2.52163e-011 5.65494e-011 -1.09494e-012
